PathFileType	4	(X/Y/Z)	C:/Users/opensim2020/Desktop/walking_exp_matlab/subject06_walking23_straight_04.trc																																																																																																																																					
DataRate	CameraRate	NumFrames	NumMarkers	Units	OrigDataRate	OrigDataStartFrame	OrigNumFrames																																																																																																																																	
100	100	6	45	mm	100	2302	145																																																																																																																																	
Frame#	Time	LFHD			RFHD			LBHD			RBHD			C7			T10			CLAV			STRN			RBAK			LSHO			LUPA			LELB			LFRM			LWRA			LWRB			LFIN			RSHO			RUPA			RELB			RFRM			RWRA			RWRB			RFIN			LASI			RASI			LPSI			RPSI			LTHI			LKNE			LTIB			LANK			LHEE			LTOE			RTHI			RKNE			RTIB			RANK			RHEE			RTOE			*39			*40			*41			*42			*43			*44		
		X1	Y1	Z1	X2	Y2	Z2	X3	Y3	Z3	X4	Y4	Z4	X5	Y5	Z5	X6	Y6	Z6	X7	Y7	Z7	X8	Y8	Z8	X9	Y9	Z9	X10	Y10	Z10	X11	Y11	Z11	X12	Y12	Z12	X13	Y13	Z13	X14	Y14	Z14	X15	Y15	Z15	X16	Y16	Z16	X17	Y17	Z17	X18	Y18	Z18	X19	Y19	Z19	X20	Y20	Z20	X21	Y21	Z21	X22	Y22	Z22	X23	Y23	Z23	X24	Y24	Z24	X25	Y25	Z25	X26	Y26	Z26	X27	Y27	Z27	X28	Y28	Z28	X29	Y29	Z29	X30	Y30	Z30	X31	Y31	Z31	X32	Y32	Z32	X33	Y33	Z33	X34	Y34	Z34	X35	Y35	Z35	X36	Y36	Z36	X37	Y37	Z37	X38	Y38	Z38	X39	Y39	Z39	X40	Y40	Z40	X41	Y41	Z41	X42	Y42	Z42	X43	Y43	Z43	X44	Y44	Z44	X45	Y45	Z45
																																																																																																																																								
37	0.36	-311.62698	1651.58069	874.73248	-304.68445	1652.09216	1007.15839	-444.1124	1597.19714	886.63879	-435.48425	1602.32361	1015.31671	-440.84399	1443.16235	946.24146	-470.38037	1113.87463	961.89105	-327.85587	1369.22266	954.22491	-284.34045	1194.6394	957.92603	-514.58289	1274.14258	1028.29504	-376.74136	1395.84692	788.97418	-412.29996	1198.00146	719.25555	-444.60291	1089.28064	712.54114	-455.39096	939.89685	690.54694	-425.50092	813.3114	732.88	-483.3945	824.91437	692.62598	-469.36313	733.57562	696.80597	-386.48706	1405.94592	1111.34644	-431.98233	1215.16956	1207.24414	-422.39667	1095.78821	1223.92078	-370.5426	990.47913	1239.69031	-261.60565	890.83527	1201.0083	-310.44614	867.79285	1241.4093	-245.10759	815.02777	1240.22888	-281.15201	963.65143	867.15033	-304.24582	958.40198	1085.93433	-443.09625	982.60944	879.84637	-452.43384	976.21069	1047.02234	-298.98535	649.13586	806.86169	-267.70264	490.30615	837.078	-292.37286	232.95853	850.11444	-293.60083	63.59312	899.48859	-335.23398	49.85754	943.16998	-149.43158	36.47699	909.26953	-334.26437	616.90631	1146.2561	-309.1636	492.18707	1139.47351	-498.80826	327.46136	1122.66846	-651.56335	231.42039	1069.37988	-681.93616	253.31187	1020.21735	-624.9801	75.49338	1070.88379	-408.76483	1694.52185	935.72876	NaN	NaN	NaN	NaN	NaN	NaN	NaN	NaN	NaN	NaN	NaN	NaN	NaN	NaN	NaN
38	0.37	-298.06595	1653.32568	874.64307	-291.28232	1653.83093	1007.05042	-430.67734	1598.9856	886.15063	-422.10733	1604.01172	1015.01782	-427.37012	1445.05603	945.59656	-457.24786	1115.55542	960.41455	-314.69534	1370.8363	954.23956	-271.34442	1196.24207	957.66394	-501.94751	1275.66504	1026.26477	-362.22702	1397.5282	788.59674	-395.30603	1199.17615	718.18872	-426.17795	1090.03662	710.73462	-434.54315	940.47333	688.68176	-403.22974	814.58606	732.80798	-460.28738	824.84448	690.86072	-444.32928	733.93256	695.90991	-374.11096	1407.02966	1111.15381	-421.72723	1216.15015	1206.29614	-413.09171	1096.49365	1223.18176	-362.87872	990.17133	1238.78687	-255.62096	888.60443	1200.03247	-304.85199	866.50116	1240.677	-240.51326	812.12048	1238.7168	-267.98697	964.80585	866.88391	-291.1329	960.47064	1085.76172	-429.85956	984.15466	878.7702	-439.90366	977.7099	1045.92896	-289.50076	649.94043	807.05109	-261.77573	490.22739	836.96771	-290.19138	233.11246	849.83313	-293.50772	63.76373	899.75629	-335.58948	50.75235	943.37762	-148.97476	36.20779	909.45892	-314.59106	620.12512	1145.97815	-285.45853	496.24619	1139.37329	-473.09357	331.33258	1122.33704	-625.20117	233.90515	1069.34851	-657.56696	254.00436	1020.35742	-592.05591	79.46044	1072.58044	-395.39236	1696.25464	935.56342	NaN	NaN	NaN	NaN	NaN	NaN	NaN	NaN	NaN	NaN	NaN	NaN	NaN	NaN	NaN
39	0.38	-284.50784	1654.99719	874.69739	-277.9567	1655.39551	1007.12024	-417.01144	1600.54053	885.91284	-408.71213	1605.48706	1014.76984	-413.99368	1446.70203	944.97266	-444.22598	1117.07678	958.99725	-301.47794	1372.29846	954.23053	-258.53848	1197.75659	957.43359	-489.24136	1277.08032	1024.24658	-347.90753	1399.13147	788.2608	-378.20798	1200.28027	717.27631	-407.47104	1090.69763	709.01862	-412.88278	940.93848	687.03314	-379.89706	815.89453	732.57513	-436.34253	824.6568	689.6778	-418.7529	734.33899	694.97491	-361.76489	1408.02734	1110.92725	-411.4902	1217.2196	1205.29285	-403.78577	1097.26941	1222.32568	-355.46106	989.86035	1237.92554	-249.9866	886.18066	1199.12952	-299.65857	865.14465	1240.06738	-236.50237	809.15906	1237.57117	-254.9592	965.92584	866.5824	-278.37469	962.49329	1085.33289	-416.87512	985.65295	877.81653	-427.23199	979.2345	1044.91858	-280.41086	650.67535	807.20319	-255.8784	490.08276	836.84009	-287.08173	233.16969	849.67236	-293.07181	63.99223	899.96436	-335.38922	51.12752	943.37885	-148.57143	35.94083	909.66284	-295.0806	623.61835	1145.69446	-261.89554	500.67358	1139.3269	-447.23935	334.47208	1122.16284	-597.93439	234.25487	1069.6062	-631.81732	252.78217	1020.71509	-558.58441	81.73023	1073.74878	-381.94272	1697.86035	935.39154	NaN	NaN	NaN	NaN	NaN	NaN	NaN	NaN	NaN	NaN	NaN	NaN	NaN	NaN	NaN
40	0.39	-270.95154	1656.51855	874.80304	-264.68201	1656.70325	1007.29199	-403.53818	1602.14246	885.93738	-395.38354	1606.82275	1014.58386	-400.74091	1448.19592	944.39185	-431.24838	1118.52783	957.57745	-288.38226	1373.63147	954.24146	-245.68675	1199.14355	957.2265	-476.60446	1278.52332	1022.37012	-333.74396	1400.64001	788.01483	-361.1326	1201.29968	716.49048	-388.59827	1091.2002	707.41339	-390.77768	941.33887	685.77838	-356.43668	817.13538	732.00891	-412.05936	824.68292	688.18805	-392.38446	734.84387	693.85736	-349.41104	1409.08984	1110.7179	-401.36017	1218.25525	1204.01184	-394.48694	1098.12305	1221.24951	-348.15768	989.6134	1236.99121	-244.87267	883.57391	1198.3866	-294.75473	863.74365	1239.71204	-233.02779	806.16547	1236.68701	-242.28154	966.96234	866.13293	-265.51804	964.57428	1084.672	-404.03195	987.01019	876.97217	-414.44394	980.81561	1044.02722	-271.61823	651.2049	807.29663	-250.05234	489.86667	836.62292	-283.48328	233.12271	849.65161	-292.58954	64.09532	900.17584	-334.957	51.42614	943.43054	-148.1938	35.61938	909.91693	-275.74631	627.21936	1145.42017	-238.85378	505.27032	1138.99817	-420.97189	336.39282	1122.07312	-569.91107	232.45235	1069.70911	-605.28107	249.70622	1020.77173	-524.50861	82.37206	1074.36694	-368.34686	1699.26355	935.48077	NaN	NaN	NaN	NaN	NaN	NaN	NaN	NaN	NaN	NaN	NaN	NaN	NaN	NaN	NaN
41	0.4	-257.35468	1657.84058	875.01776	-251.37769	1657.76062	1007.55695	-390.03992	1603.63159	885.75836	-382.10422	1608.01953	1014.47284	-387.6113	1449.48669	943.80298	-418.32449	1119.85352	956.17755	-275.47617	1374.76807	954.21002	-232.87773	1200.37964	957.11194	-464.00156	1279.8374	1020.66199	-319.82648	1402.01843	787.76038	-344.13257	1202.29199	715.86615	-369.74478	1091.94006	705.97656	-368.31018	941.90643	684.76862	-332.23184	818.55804	731.77173	-387.30063	824.74561	686.74915	-365.34479	735.54352	692.66516	-337.10416	1409.96753	1110.38513	-391.33139	1219.30103	1202.67517	-385.09637	1099.02075	1220.03674	-340.91501	989.37891	1236.02502	-239.96411	880.92566	1198.00684	-290.54428	862.16986	1239.08252	-229.93771	803.08728	1236.03357	-229.7746	967.89191	865.55298	-252.62326	966.42841	1083.97656	-391.27942	988.22357	876.27679	-401.63181	982.38641	1043.30579	-262.81934	651.5611	807.16803	-244.32462	489.58871	836.35309	-280.1774	233.01569	849.6062	-291.95969	64.53946	899.94037	-334.84909	52.01463	943.07819	-147.86118	35.32277	909.94312	-256.4592	630.54034	1144.97864	-216.34984	509.93298	1138.44519	-394.66617	337.15237	1121.89795	-541.03265	229.05838	1069.64844	-577.96783	245.03488	1020.78839	-489.46869	81.97287	1074.73608	-354.99609	1700.58032	935.57733	NaN	NaN	NaN	NaN	NaN	NaN	NaN	NaN	NaN	NaN	NaN	NaN	NaN	NaN	NaN
42	0.41	-243.79303	1659.0011	875.37238	-238.10635	1658.61597	1007.86005	-376.59473	1604.94531	885.65881	-368.95966	1609.11731	1014.4068	-374.47571	1450.61877	943.22681	-405.49677	1121.13489	954.98633	-262.58527	1375.77832	954.12598	-220.14287	1201.401	956.94086	-451.43115	1281.15381	1019.28705	-306.0983	1403.30481	787.53497	-327.33618	1203.23547	715.31726	-350.88626	1092.50269	704.65765	-345.85745	942.47778	683.75116	-307.91818	820.03241	731.24219	-362.31281	824.88879	685.4364	-337.77325	736.43787	691.42633	-324.93103	1410.875	1110.05664	-381.02429	1220.33667	1201.44519	-375.66531	1099.90063	1218.6355	-333.75897	989.23383	1235.00232	-235.21622	878.0874	1197.79639	-286.77603	860.82574	1238.70972	-227.38191	800.0564	1235.83557	-216.91342	968.84473	864.48242	-239.5146	968.27081	1083.04834	-378.93347	989.34698	875.73688	-388.72589	983.94592	1042.82361	-254.52911	651.77191	807.17212	-238.88205	489.22327	835.90356	-277.84348	233.27094	849.59528	-291.58624	64.8056	899.92218	-334.65094	52.63361	943.0899	-147.63058	35.11811	909.86151	-237.64958	633.90009	1144.71912	-194.27507	514.43604	1137.84717	-368.24756	336.76294	1121.61145	-511.98901	224.58672	1069.8241	-549.90149	238.91153	1020.94379	-453.97318	80.34121	1074.5791	-341.4238	1701.79358	935.67139	NaN	NaN	NaN	NaN	NaN	NaN	NaN	NaN	NaN	NaN	NaN	NaN	NaN	NaN	NaN
